<svg id="pulse" xmlns="http://www.w3.org/2000/svg" width="23.333" height="20" viewBox="0 0 23.333 20">
  <g id="Group_16" data-name="Group 16" transform="translate(0 0)">
    <path id="Path_9" data-name="Path 9" d="M22.361,53.667H19.215L16.494,43.4a.967.967,0,0,0-1.888.046L11.448,58.065,7.72,47.33a.964.964,0,0,0-1.85.062L4.128,53.667H.972a1,1,0,0,0,0,2H4.861a.976.976,0,0,0,.934-.726l1.112-4L10.752,62a.972.972,0,0,0,.915.664l.06,0a.982.982,0,0,0,.889-.781l3.035-14.053,1.883,7.1a.978.978,0,0,0,.938.737h3.889a1,1,0,0,0,0-2Z" transform="translate(0 -42.667)" fill="#bcc4cc"/>
  </g>
</svg>
